<svg width="50" height="50" viewBox="0 0 50 50" fill="none" xmlns="http://www.w3.org/2000/svg">
<path fill-rule="evenodd" clip-rule="evenodd" d="M45.5379 14.6685L43.8986 16.3084C40.3467 13.2114 35.7924 11.4792 31.057 11.4792C27.8689 11.4792 24.6824 12.2992 21.9501 13.7563L28.8712 6.83288C29.4177 7.19673 30.0546 7.37951 30.6933 7.37951C31.6035 7.37951 32.5154 7.01566 33.2428 6.28625C34.6995 4.82914 34.6995 2.55037 33.2428 1.09326C32.5137 0.363851 31.6035 0 30.6933 0C29.7831 0 28.8712 0.363851 28.1438 1.09326C26.9604 2.3693 26.7777 4.19026 27.5973 5.55684L18.8542 14.3029L17.2148 12.663L12.7527 17.1266L14.3921 18.7665L5.46619 27.6954C4.91974 27.3315 4.28279 27.1487 3.64413 27.1487C2.73395 27.1487 1.82206 27.5126 1.09461 28.242C-0.36202 29.6991 -0.36202 31.9779 1.09461 33.435C1.82377 34.0722 2.73395 34.4377 3.64413 34.4377C4.5543 34.4377 5.46619 34.0739 6.19365 33.3445C7.37705 32.1607 7.55977 30.338 6.7401 28.8809L13.6612 21.9575C10.0188 28.9731 10.8385 37.7192 16.2107 43.9132L14.5714 45.6436L19.1257 50.1072L23.5878 45.6436L19.1257 41.1801L17.5768 42.7294C12.2951 36.5337 12.0219 27.6065 16.4839 21.047L17.2131 21.7764L21.7674 17.3128L20.9477 16.5834C23.8627 14.4874 27.4146 13.3942 31.057 13.3942C35.3381 13.3942 39.3443 14.9435 42.623 17.6767L40.9836 19.226L45.5379 23.6896L50 19.226L45.5379 14.6702V14.6685ZM21.0383 45.6437L19.1257 47.5569L17.2131 45.6437L19.1257 43.7305L21.0383 45.6437V45.6437ZM29.4177 2.45996C29.7814 2.09611 30.2374 1.91333 30.6933 1.91333C31.1493 1.91333 31.6035 2.09611 31.9689 2.45996C32.6981 3.18937 32.6981 4.28263 31.9689 5.01033C31.6052 5.37418 31.1493 5.55696 30.6933 5.55696C30.2374 5.55696 29.7831 5.37418 29.4177 5.01033C28.6885 4.37317 28.6885 3.18766 29.4177 2.45996V2.45996ZM4.91801 32.0684C4.55428 32.4323 4.09834 32.6151 3.6424 32.6151C3.18645 32.6151 2.73222 32.4323 2.36678 32.0684C2.00305 31.7951 1.82033 31.339 1.82033 30.7924C1.82033 30.3363 2.00305 29.8819 2.36678 29.5164C2.73051 29.1508 3.18645 28.9697 3.6424 28.9697C4.09834 28.9697 4.55257 29.1525 4.91801 29.5164C5.64718 30.2458 5.64718 31.4296 4.91801 32.0667V32.0684ZM17.1226 19.2227L15.2101 17.3094L17.1226 15.3962L19.0352 17.3094L17.1226 19.2227V19.2227ZM45.5379 21.1357L43.6253 19.2225L45.5379 17.3093L47.4505 19.2225L45.5379 21.1357V21.1357Z" fill="#333333"/>
</svg>
